<svg id="Layer_1" data-name="Layer 1" xmlns="http://www.w3.org/2000/svg" xmlns:xlink="http://www.w3.org/1999/xlink" viewBox="0 0 788.94 788.94"><defs><style>.cls-1{fill:url(#linear-gradient);}.cls-2{fill:url(#linear-gradient-2);}.cls-3{fill:url(#linear-gradient-3);}.cls-4{fill:url(#linear-gradient-4);}.cls-5{fill:url(#linear-gradient-5);}.cls-6{fill:url(#linear-gradient-6);}.cls-7{fill:url(#linear-gradient-7);}.cls-8{fill:url(#linear-gradient-8);}</style><linearGradient id="linear-gradient" x1="503.2" y1="670.44" x2="899.11" y2="274.53" gradientUnits="userSpaceOnUse"><stop offset="0" stop-color="#9acccc"/><stop offset="0.62" stop-color="#3ca9be"/><stop offset="1" stop-color="#0093b5"/></linearGradient><linearGradient id="linear-gradient-2" x1="419.77" y1="742.22" x2="839.36" y2="322.63" xlink:href="#linear-gradient"/><linearGradient id="linear-gradient-3" x1="493.79" y1="510.05" x2="829.6" y2="174.24" xlink:href="#linear-gradient"/><linearGradient id="linear-gradient-4" x1="349.98" y1="511.81" x2="743.35" y2="118.44" xlink:href="#linear-gradient"/><linearGradient id="linear-gradient-5" x1="371.87" y1="766.35" x2="765.24" y2="372.98" xlink:href="#linear-gradient"/><linearGradient id="linear-gradient-6" x1="283.54" y1="554.48" x2="703.12" y2="134.89" xlink:href="#linear-gradient"/><linearGradient id="linear-gradient-7" x1="216.85" y1="609.51" x2="612.76" y2="213.6" xlink:href="#linear-gradient"/><linearGradient id="linear-gradient-8" x1="268.76" y1="727.4" x2="604.57" y2="391.6" xlink:href="#linear-gradient"/></defs><title>logo test 2</title><path class="cls-1" d="M894.45,496.28c0,1.24,0,2.48,0,3.72s0,2.48,0,3.72c0,.82,0,1.63,0,2.45A279.82,279.82,0,0,1,616,780h-1.43A279.65,279.65,0,0,1,334.57,502.28,164.91,164.91,0,0,0,380.09,614c.43.46.88.92,1.33,1.38L383,617l1.62,1.6c.46.45.92.9,1.38,1.33A279.71,279.71,0,0,0,778.93,617l1-1A278.49,278.49,0,0,0,849,500a281.29,281.29,0,0,0,4.21-146.32,278.48,278.48,0,0,0-71.76-130A393,393,0,0,1,894.41,493.83C894.43,494.65,894.44,495.46,894.45,496.28Z" transform="translate(-105.53 -105.53)"/><path class="cls-2" d="M853.23,646.32a278.42,278.42,0,0,0,41.18-140.15A393,393,0,0,1,781.47,776.35c-.84.87-1.69,1.73-2.54,2.58s-1.71,1.7-2.58,2.54a278.48,278.48,0,0,1-130,71.76A281.29,281.29,0,0,1,500,849,278.49,278.49,0,0,1,384.05,780l-1-1A279.53,279.53,0,0,1,380.09,386a164.91,164.91,0,0,0-45.52,111.7c0,.76,0,1.52,0,2.28s0,1.52,0,2.28A279.75,279.75,0,0,0,614.52,780H616A279.75,279.75,0,0,0,853.23,646.32Z" transform="translate(-105.53 -105.53)"/><path class="cls-3" d="M853.23,353.68A281.29,281.29,0,0,1,849,500,278.49,278.49,0,0,1,780,616l-1,1A279.53,279.53,0,0,1,386,619.91a164.91,164.91,0,0,0,111.7,45.52h4.56A279.75,279.75,0,0,0,780,385.48c0-.48,0-1,0-1.43A279.87,279.87,0,0,0,506.17,105.59,393,393,0,0,1,776.35,218.53c.87.84,1.73,1.69,2.58,2.54s1.7,1.71,2.54,2.58A278.48,278.48,0,0,1,853.23,353.68Z" transform="translate(-105.53 -105.53)"/><path class="cls-4" d="M780,384.05c0,.48,0,.95,0,1.43A279.65,279.65,0,0,1,502.28,665.43a164.91,164.91,0,0,0,113.08-46.85L617,617l1.6-1.62c.45-.46.9-.92,1.33-1.38A279.71,279.71,0,0,0,617,221.07l-1-1A278.49,278.49,0,0,0,500,151a281.29,281.29,0,0,0-146.32-4.21,278.48,278.48,0,0,0-130,71.76,393.07,393.07,0,0,1,272.63-113l3.72,0,3.72,0,2.45,0A279.82,279.82,0,0,1,780,384.05Z" transform="translate(-105.53 -105.53)"/><path class="cls-5" d="M646.32,853.23a278.48,278.48,0,0,0,130-71.76A393,393,0,0,1,506.17,894.41l-2.45,0-3.72,0-3.72,0-2.45,0A279.82,279.82,0,0,1,220.05,616c0-.48,0-1,0-1.43A279.65,279.65,0,0,1,497.72,334.57,164.91,164.91,0,0,0,386,380.09c-.46.43-.92.88-1.38,1.33L383,383l-1.6,1.62c-.45.46-.9.92-1.33,1.38A279.71,279.71,0,0,0,383,778.93l1,1A278.49,278.49,0,0,0,500,849,281.29,281.29,0,0,0,646.32,853.23Z" transform="translate(-105.53 -105.53)"/><path class="cls-6" d="M699,417.58A278.78,278.78,0,0,1,619.91,614a164.91,164.91,0,0,0,45.52-111.7c0-.76,0-1.52,0-2.28s0-1.52,0-2.28A279.75,279.75,0,0,0,385.48,220h-1.43A279.87,279.87,0,0,0,105.59,493.83,393,393,0,0,1,218.53,223.65c.84-.87,1.69-1.73,2.54-2.58s1.71-1.7,2.58-2.54a278.48,278.48,0,0,1,130-71.76A281.29,281.29,0,0,1,500,151a278.49,278.49,0,0,1,116,69.07l1,1a279.07,279.07,0,0,1,82,196.51Z" transform="translate(-105.53 -105.53)"/><path class="cls-7" d="M657.77,434.66a279.9,279.9,0,0,1,7.66,63.06A164.91,164.91,0,0,0,619.91,386c-.43-.46-.88-.92-1.33-1.38L617,383l-1.62-1.6c-.46-.45-.92-.9-1.38-1.33A279.71,279.71,0,0,0,221.07,383l-1,1A278.49,278.49,0,0,0,151,500a281.29,281.29,0,0,0-4.21,146.32,278.48,278.48,0,0,0,71.76,130A393,393,0,0,1,105.59,506.17c0-.82,0-1.63,0-2.45,0-1.24,0-2.48,0-3.72s0-2.48,0-3.72c0-.82,0-1.63,0-2.45A279.82,279.82,0,0,1,384.05,220.05h1.43A280,280,0,0,1,657.77,434.66Z" transform="translate(-105.53 -105.53)"/><path class="cls-8" d="M565.34,342.23A279.27,279.27,0,0,1,614,380.09a164.91,164.91,0,0,0-111.7-45.52h-4.56A279.75,279.75,0,0,0,220,614.52c0,.48,0,1,0,1.43A279.87,279.87,0,0,0,493.83,894.41,393,393,0,0,1,223.65,781.47c-.87-.84-1.73-1.69-2.58-2.54s-1.7-1.71-2.54-2.58a278.48,278.48,0,0,1-71.76-130A281.29,281.29,0,0,1,151,500a278.49,278.49,0,0,1,69.07-115.95l1-1a279.94,279.94,0,0,1,344.27-40.79Z" transform="translate(-105.53 -105.53)"/></svg>